<?xml version="1.0" encoding="UTF-8"?>
<svg xmlns="http://www.w3.org/2000/svg" viewBox="0 0 612 792">
  <g id="Fondo">
    <rect x="-.64" y=".54" width="613.31" height="791.46" style="fill: #fff; stroke-width: 0px;"/>
  </g>
  <g id="Capa_8" data-name="Capa 8">
    <g>
      <rect x="276.63" width="16.14" height="16" style="fill: #e1ae39; stroke-width: 0px;"/>
      <rect x="259.38" width="16.1" height="16" style="fill: #e1ae39; stroke-width: 0px;"/>
      <rect x="224.77" width="16.1" height="16" style="fill: #adac2e; stroke-width: 0px;"/>
      <rect x="207.46" width="16.09" height="16" style="fill: #5a4c8c; stroke-width: 0px;"/>
      <rect x="172.9" width="16.14" height="16" style="fill: #5a4c8c; stroke-width: 0px;"/>
      <rect x="155.65" width="16.1" height="16" style="fill: #e1ae39; stroke-width: 0px;"/>
      <rect x="138.34" width="16.1" height="16" style="fill: #e1ae39; stroke-width: 0px;"/>
      <rect x="121.04" width="16.1" height="16" style="fill: #29c2a2; stroke-width: 0px;"/>
      <rect x="103.73" width="16.1" height="16" style="fill: #29c2a2; stroke-width: 0px;"/>
      <rect x="86.48" width="16.09" height="16" style="fill: #adac2e; stroke-width: 0px;"/>
      <rect x="69.17" width="16.1" height="16" style="fill: #adac2e; stroke-width: 0px;"/>
      <rect x="51.87" width="16.1" height="16" style="fill: #e1ae39; stroke-width: 0px;"/>
      <rect x="17.26" width="16.09" height="16" style="fill: #5a4c8c; stroke-width: 0px;"/>
      <rect width="16.1" height="16" style="fill: #5a4c8c; stroke-width: 0px;"/>
      <rect x="259.38" y="17.31" width="16.1" height="16" style="fill: #e1ae39; stroke-width: 0px;"/>
      <rect x="242.07" y="17.31" width="16.1" height="16" style="fill: #adac2e; stroke-width: 0px;"/>
      <rect x="207.46" y="17.31" width="16.09" height="16" style="fill: #e35481; stroke-width: 0px;"/>
      <rect x="190.16" y="17.31" width="16.14" height="16" style="fill: #e35481; stroke-width: 0px;"/>
      <rect x="138.34" y="17.31" width="16.1" height="16" style="fill: #e1ae39; stroke-width: 0px;"/>
      <rect x="103.73" y="17.31" width="16.1" height="16" style="fill: #adac2e; stroke-width: 0px;"/>
      <rect x="86.48" y="17.31" width="16.09" height="16" style="fill: #adac2e; stroke-width: 0px;"/>
      <rect x="51.87" y="17.31" width="16.1" height="16" style="fill: #e1ae39; stroke-width: 0px;"/>
      <rect x="34.56" y="17.31" width="16.1" height="16" style="fill: #adac2e; stroke-width: 0px;"/>
      <rect x="17.26" y="17.31" width="16.09" height="16" style="fill: #5a4c8c; stroke-width: 0px;"/>
      <rect y="17.31" width="16.1" height="16" style="fill: #5a4c8c; stroke-width: 0px;"/>
      <rect x="17.26" y="34.56" width="16.09" height="16.05" style="fill: #adac2e; stroke-width: 0px;"/>
      <rect y="34.56" width="16.1" height="16.05" style="fill: #ff5f2c; stroke-width: 0px;"/>
      <rect y="51.87" width="16.1" height="16.05" style="fill: #ff5f2c; stroke-width: 0px;"/>
      <rect x="17.26" y="69.17" width="16.09" height="16" style="fill: #e35481; stroke-width: 0px;"/>
      <rect y="69.17" width="16.1" height="16" style="fill: #ff5f2c; stroke-width: 0px;"/>
      <rect y="86.47" width="16.1" height="16" style="fill: #29c2a2; stroke-width: 0px;"/>
      <rect x="34.56" y="103.78" width="16.1" height="16" style="fill: #e1ae39; stroke-width: 0px;"/>
      <rect y="103.78" width="16.1" height="16" style="fill: #29c2a2; stroke-width: 0px;"/>
      <rect x="51.87" y="121.08" width="16.1" height="16" style="fill: #29c2a2; stroke-width: 0px;"/>
      <rect x="17.26" y="121.08" width="16.09" height="16" style="fill: #e1ae39; stroke-width: 0px;"/>
      <rect y="121.08" width="16.1" height="16" style="fill: #29c2a2; stroke-width: 0px;"/>
      <rect x="34.56" y="138.39" width="16.1" height="16" style="fill: #adac2e; stroke-width: 0px;"/>
      <rect y="138.39" width="16.1" height="16" style="fill: #adac2e; stroke-width: 0px;"/>
      <rect x="17.26" y="155.69" width="16.09" height="16" style="fill: #29c2a2; stroke-width: 0px;"/>
      <rect y="155.69" width="16.1" height="16" style="fill: #29c2a2; stroke-width: 0px;"/>
      <rect y="173" width="16.1" height="16" style="fill: #5a4c8c; stroke-width: 0px;"/>
      <rect x="17.26" y="190.25" width="16.09" height="16.05" style="fill: #5a4c8c; stroke-width: 0px;"/>
      <rect y="190.25" width="16.1" height="16.05" style="fill: #5a4c8c; stroke-width: 0px;"/>
      <rect y="207.56" width="16.1" height="16.05" style="fill: #5a4c8c; stroke-width: 0px;"/>
      <rect y="224.86" width="16.1" height="16.05" style="fill: #adac2e; stroke-width: 0px;"/>
      <rect x="17.26" y="242.17" width="16.09" height="16" style="fill: #29c2a2; stroke-width: 0px;"/>
      <rect y="259.47" width="16.1" height="16" style="fill: #e35481; stroke-width: 0px;"/>
    </g>
    <g>
      <rect x="319.22" y="776" width="16.14" height="16" style="fill: #e1ae39; stroke-width: 0px;"/>
      <rect x="336.53" y="776" width="16.1" height="16" style="fill: #e1ae39; stroke-width: 0px;"/>
      <rect x="371.14" y="776" width="16.1" height="16" style="fill: #adac2e; stroke-width: 0px;"/>
      <rect x="388.44" y="776" width="16.09" height="16" style="fill: #5a4c8c; stroke-width: 0px;"/>
      <rect x="422.95" y="776" width="16.14" height="16" style="fill: #5a4c8c; stroke-width: 0px;"/>
      <rect x="440.26" y="776" width="16.1" height="16" style="fill: #e1ae39; stroke-width: 0px;"/>
      <rect x="457.56" y="776" width="16.1" height="16" style="fill: #e1ae39; stroke-width: 0px;"/>
      <rect x="474.87" y="776" width="16.1" height="16" style="fill: #29c2a2; stroke-width: 0px;"/>
      <rect x="492.17" y="776" width="16.1" height="16" style="fill: #29c2a2; stroke-width: 0px;"/>
      <rect x="509.43" y="776" width="16.09" height="16" style="fill: #adac2e; stroke-width: 0px;"/>
      <rect x="526.73" y="776" width="16.1" height="16" style="fill: #adac2e; stroke-width: 0px;"/>
      <rect x="544.04" y="776" width="16.1" height="16" style="fill: #e1ae39; stroke-width: 0px;"/>
      <rect x="578.65" y="776" width="16.09" height="16" style="fill: #5a4c8c; stroke-width: 0px;"/>
      <rect x="595.9" y="776" width="16.1" height="16" style="fill: #5a4c8c; stroke-width: 0px;"/>
      <rect x="336.53" y="758.7" width="16.1" height="16" style="fill: #e1ae39; stroke-width: 0px;"/>
      <rect x="353.83" y="758.7" width="16.1" height="16" style="fill: #adac2e; stroke-width: 0px;"/>
      <rect x="388.44" y="758.7" width="16.09" height="16" style="fill: #e35481; stroke-width: 0px;"/>
      <rect x="405.7" y="758.7" width="16.14" height="16" style="fill: #e35481; stroke-width: 0px;"/>
      <rect x="457.56" y="758.7" width="16.1" height="16" style="fill: #e1ae39; stroke-width: 0px;"/>
      <rect x="492.17" y="758.7" width="16.1" height="16" style="fill: #adac2e; stroke-width: 0px;"/>
      <rect x="509.43" y="758.7" width="16.09" height="16" style="fill: #adac2e; stroke-width: 0px;"/>
      <rect x="544.04" y="758.7" width="16.1" height="16" style="fill: #e1ae39; stroke-width: 0px;"/>
      <rect x="561.34" y="758.7" width="16.1" height="16" style="fill: #adac2e; stroke-width: 0px;"/>
      <rect x="578.65" y="758.7" width="16.09" height="16" style="fill: #5a4c8c; stroke-width: 0px;"/>
      <rect x="595.9" y="758.7" width="16.1" height="16" style="fill: #5a4c8c; stroke-width: 0px;"/>
      <rect x="578.65" y="741.39" width="16.09" height="16.05" style="fill: #adac2e; stroke-width: 0px;"/>
      <rect x="595.9" y="741.39" width="16.1" height="16.05" style="fill: #ff5f2c; stroke-width: 0px;"/>
      <rect x="595.9" y="724.09" width="16.1" height="16.05" style="fill: #ff5f2c; stroke-width: 0px;"/>
      <rect x="578.65" y="706.83" width="16.09" height="16" style="fill: #e35481; stroke-width: 0px;"/>
      <rect x="595.9" y="706.83" width="16.1" height="16" style="fill: #ff5f2c; stroke-width: 0px;"/>
      <rect x="595.9" y="689.53" width="16.1" height="16" style="fill: #29c2a2; stroke-width: 0px;"/>
      <rect x="561.34" y="672.22" width="16.1" height="16" style="fill: #e1ae39; stroke-width: 0px;"/>
      <rect x="595.9" y="672.22" width="16.1" height="16" style="fill: #29c2a2; stroke-width: 0px;"/>
      <rect x="544.04" y="654.92" width="16.1" height="16" style="fill: #29c2a2; stroke-width: 0px;"/>
      <rect x="578.65" y="654.92" width="16.09" height="16" style="fill: #e1ae39; stroke-width: 0px;"/>
      <rect x="595.9" y="654.92" width="16.1" height="16" style="fill: #29c2a2; stroke-width: 0px;"/>
      <rect x="561.34" y="637.61" width="16.1" height="16" style="fill: #adac2e; stroke-width: 0px;"/>
      <rect x="595.9" y="637.61" width="16.1" height="16" style="fill: #adac2e; stroke-width: 0px;"/>
      <rect x="578.65" y="620.31" width="16.09" height="16" style="fill: #29c2a2; stroke-width: 0px;"/>
      <rect x="595.9" y="620.31" width="16.1" height="16" style="fill: #29c2a2; stroke-width: 0px;"/>
      <rect x="595.9" y="603" width="16.1" height="16" style="fill: #5a4c8c; stroke-width: 0px;"/>
      <rect x="578.65" y="585.7" width="16.09" height="16.05" style="fill: #5a4c8c; stroke-width: 0px;"/>
      <rect x="595.9" y="585.7" width="16.1" height="16.05" style="fill: #5a4c8c; stroke-width: 0px;"/>
      <rect x="595.9" y="568.39" width="16.1" height="16.05" style="fill: #5a4c8c; stroke-width: 0px;"/>
      <rect x="595.9" y="551.09" width="16.1" height="16.05" style="fill: #adac2e; stroke-width: 0px;"/>
      <rect x="578.65" y="533.83" width="16.09" height="16" style="fill: #29c2a2; stroke-width: 0px;"/>
      <rect x="595.9" y="516.53" width="16.1" height="16" style="fill: #e35481; stroke-width: 0px;"/>
    </g>
  </g>
</svg>