<?xml version="1.0" encoding="UTF-8"?>
<svg id="Capa_4" data-name="Capa 4" xmlns="http://www.w3.org/2000/svg" xmlns:xlink="http://www.w3.org/1999/xlink" viewBox="0 0 612 792">
  <defs>
    <clipPath id="clippath">
      <rect x="0" width="612" height="792" style="fill: #fff; stroke-width: 0px;"/>
    </clipPath>
  </defs>
  <rect x="0" width="612" height="792" style="fill: #fff;"/>
  <g style="clip-path: url(#clippath);">
    <rect x=".7" y="-.85" width="30.2" height="30.2" transform="translate(-3 4.3) rotate(-14.15)" style="fill: #007bc3; stroke-width: 0px;"/>
    <polygon points="49.95 -9.06 33.9 -5.01 40.86 22.61 68.47 15.65 62.25 -9.06 49.95 -9.06" style="fill: #008ad0; stroke-width: 0px;"/>
    <polygon points="70.73 -9.06 76.4 13.43 103.6 6.57 99.66 -9.06 70.73 -9.06" style="fill: #0088cf; stroke-width: 0px;"/>
    <polygon points="111.25 -9.06 113.81 1.11 135.6 -4.38 134.42 -9.06 111.25 -9.06" style="fill: #00aced; stroke-width: 0px;"/>
    <rect x="-24.62" y="44.6" width="27.91" height="27.91" transform="translate(-14.63 -.83) rotate(-14.15)" style="fill: #0091d6; stroke-width: 0px;"/>
    <rect x="11.27" y="36.18" width="26.91" height="26.9" transform="translate(-11.38 7.55) rotate(-14.15)" style="fill: #0098dc; stroke-width: 0px;"/>
    <rect x="45.23" y="25.82" width="29.77" height="29.77" transform="translate(-8.13 15.93) rotate(-14.15)" style="fill: #007fc5; stroke-width: 0px;"/>
    <rect x="90.34" y="26.64" width="10.31" height="10.3" transform="translate(-4.87 24.3) rotate(-14.14)" style="fill: #39c3f2; stroke-width: 0px;"/>
    <rect x="126.09" y="18.07" width="9.59" height="9.59" transform="translate(-1.62 32.68) rotate(-14.14)" style="fill: #20c0f1; stroke-width: 0px;"/>
    <rect x="154.39" y="2.06" width="23.76" height="23.76" transform="translate(1.63 41.05) rotate(-14.14)" style="fill: #00a3e6; stroke-width: 0px;"/>
    <polygon points="198.07 11.01 207.66 8.59 205.24 -.98 195.67 1.44 198.07 11.01" style="fill: #10c0f1; stroke-width: 0px;"/>
    <polygon points="239.33 -9.06 231.66 -7.12 233.83 1.48 242.43 -.69 240.32 -9.06 239.33 -9.06" style="fill: #1cc0f1; stroke-width: 0px;"/>
    <rect x="-14.91" y="80.77" width="26.33" height="26.33" transform="translate(-23.05 2.43) rotate(-14.17)" style="fill: #00a0e3; stroke-width: 0px;"/>
    <rect x="294.91" y="-5.45" width="10.21" height="10.22" transform="translate(9.18 73.33) rotate(-14.15)" style="fill: #5dc8f3; stroke-width: 0px;"/>
    <rect x="241.91" y="8.87" width="8.7" height="8.7" transform="translate(4.25 60.66) rotate(-14.16)" style="fill: #64caf3; stroke-width: 0px;"/>
    <rect x="182.17" y="16.45" width="20.65" height="20.66" transform="translate(-.7 47.93) rotate(-14.17)" style="fill: #00bbf0; stroke-width: 0px;"/>
    <rect x="128.29" y="29.9" width="20.87" height="20.87" transform="translate(-5.65 35.14) rotate(-14.15)" style="fill: #00baf0; stroke-width: 0px;"/>
    <rect x="79.42" y="48.35" width="11.09" height="11.09" transform="translate(-10.58 22.36) rotate(-14.12)" style="fill: #4ec6f2; stroke-width: 0px;"/>
    <rect x="7.83" y="44.08" width="46.75" height="46.75" transform="translate(-15.55 9.68) rotate(-14.16)" style="fill: #0074bc; stroke-width: 0px;"/>
    <polygon points="-40.51 111.54 8.06 99.3 -4.27 50.39 -40.51 59.53 -40.51 111.54" style="fill: #0051a3; stroke-width: 0px;"/>
    <polygon points="102.62 -9.06 108.54 14.42 153.02 3.2 149.93 -9.06 102.62 -9.06" style="fill: #007bc3; stroke-width: 0px;"/>
    <polygon points="46.78 -9.06 55.72 26.4 97.68 15.82 91.41 -9.06 46.78 -9.06" style="fill: #008ad0; stroke-width: 0px;"/>
    <polygon points="20.7 -9.06 -8.23 -1.76 2.19 39.56 43.52 29.14 33.89 -9.06 20.7 -9.06" style="fill: #0088cf; stroke-width: 0px;"/>
    <rect x="582.35" y="765.67" width="5.73" height="5.73" transform="translate(-170.56 166.93) rotate(-14.19)" style="fill: #64caf3; stroke-width: 0px;"/>
    <rect x="543.03" y="770.66" width="13.6" height="13.59" transform="translate(-173.33 157.95) rotate(-14.15)" style="fill: #00bbf0; stroke-width: 0px;"/>
    <rect x="507.57" y="779.51" width="13.74" height="13.74" transform="translate(-176.5 149.48) rotate(-14.14)" style="fill: #00baf0; stroke-width: 0px;"/>
    <rect x="475.41" y="791.64" width="7.3" height="7.31" transform="translate(-179.47 140.82) rotate(-14.11)" style="fill: #4ec6f2; stroke-width: 0px;"/>
    <polygon points="459.02 802.19 454.82 785.53 424.98 793.06 427.28 802.19 459.02 802.19" style="fill: #0074bc; stroke-width: 0px;"/>
    <polygon points="624.64 721.49 621.28 708.14 595.6 714.62 602.08 740.29 624.64 734.6 624.64 721.49" style="fill: #00a2e5; stroke-width: 0px;"/>
    <rect x="564.48" y="721.33" width="23.62" height="23.62" transform="translate(-161.76 163.15) rotate(-14.15)" style="fill: #00a0e2; stroke-width: 0px;"/>
    <rect x="528.31" y="729.47" width="25.19" height="25.19" transform="translate(-164.97 154.71) rotate(-14.15)" style="fill: #09d; stroke-width: 0px;"/>
    <rect x="490.41" y="735.89" width="30.2" height="30.19" transform="translate(-168.29 146.41) rotate(-14.15)" style="fill: #007bc3; stroke-width: 0px;"/>
    <rect x="455.89" y="745.67" width="28.48" height="28.48" transform="translate(-171.55 138.03) rotate(-14.15)" style="fill: #008ad0; stroke-width: 0px;"/>
    <rect x="420.72" y="754.81" width="28.05" height="28.05" transform="translate(-174.73 129.58) rotate(-14.15)" style="fill: #0088cf; stroke-width: 0px;"/>
    <rect x="388.12" y="766.52" width="22.46" height="22.47" transform="translate(-178.01 121.23) rotate(-14.15)" style="fill: #00aced; stroke-width: 0px;"/>
    <polygon points="371.8 773.56 350.85 778.84 356.13 799.8 377.08 794.51 371.8 773.56" style="fill: #00aeed; stroke-width: 0px;"/>
    <polygon points="341.31 802.19 336.36 782.57 315.55 787.82 319.17 802.19 341.31 802.19" style="fill: #00aeed; stroke-width: 0px;"/>
    <polygon points="307.29 802.19 303.51 787.23 275.91 794.2 277.92 802.19 307.29 802.19" style="fill: #0081c9; stroke-width: 0px;"/>
    <rect x="591.59" y="677.67" width="22.33" height="22.33" transform="translate(-150.24 168.45) rotate(-14.17)" style="fill: #00aced; stroke-width: 0px;"/>
    <rect x="553.7" y="684.09" width="27.34" height="27.34" transform="translate(-153.31 159.81) rotate(-14.15)" style="fill: #0092d7; stroke-width: 0px;"/>
    <rect x="518.02" y="692.72" width="27.91" height="27.91" transform="translate(-156.58 151.45) rotate(-14.15)" style="fill: #0091d6; stroke-width: 0px;"/>
    <rect x="483.14" y="702.14" width="26.91" height="26.91" transform="translate(-159.9 143.14) rotate(-14.15)" style="fill: #0098dc; stroke-width: 0px;"/>
    <rect x="446.32" y="709.64" width="29.77" height="29.76" transform="translate(-163.26 134.87) rotate(-14.16)" style="fill: #007fc5; stroke-width: 0px;"/>
    <rect x="420.67" y="728.29" width="10.3" height="10.3" transform="translate(-166.32 126.3) rotate(-14.14)" style="fill: #39c3f2; stroke-width: 0px;"/>
    <polygon points="393.91 736.55 384.61 738.89 386.96 748.19 396.25 745.85 393.91 736.55" style="fill: #20c0f1; stroke-width: 0px;"/>
    <rect x="343.16" y="739.41" width="23.76" height="23.76" transform="translate(-173.02 109.7) rotate(-14.16)" style="fill: #00a3e6; stroke-width: 0px;"/>
    <rect x="314.72" y="755.28" width="9.88" height="9.87" transform="translate(-176.24 101.28) rotate(-14.16)" style="fill: #10c0f1; stroke-width: 0px;"/>
    <rect x="279.83" y="764.7" width="8.87" height="8.87" transform="translate(-179.31 92.77) rotate(-14.14)" style="fill: #1cc0f1; stroke-width: 0px;"/>
    <rect x="247.6" y="776.77" width="2.57" height="2.58" transform="translate(-183.17 84.77) rotate(-14.19)" style="fill: #8dd4f5; stroke-width: 0px;"/>
    <polygon points="216.82 781.43 207.94 783.66 210.18 792.55 219.05 790.3 216.82 781.43" style="fill: #34c2f1; stroke-width: 0px;"/>
    <rect x="173.1" y="790.9" width="10.01" height="10.03" transform="translate(-189.38 67.8) rotate(-14.17)" style="fill: #3ec3f2; stroke-width: 0px;"/>
    <polygon points="624.64 628.63 609.15 632.53 617.23 664.6 624.64 662.72 624.64 628.63" style="fill: #0054a5; stroke-width: 0px;"/>
    <rect x="581.1" y="640.71" width="25.47" height="25.47" transform="translate(-141.8 165.11) rotate(-14.16)" style="fill: #00a2e5; stroke-width: 0px;"/>
    <rect x="545.92" y="649.84" width="25.05" height="25.04" transform="translate(-144.97 156.61) rotate(-14.15)" style="fill: #00a5e8; stroke-width: 0px;"/>
    <rect x="509.89" y="658.13" width="26.33" height="26.34" transform="translate(-148.26 148.27) rotate(-14.15)" style="fill: #00a0e3; stroke-width: 0px;"/>
    <polygon points="624.64 594.68 604.57 599.74 610.9 624.86 624.64 621.39 624.64 594.68" style="fill: #009ce0; stroke-width: 0px;"/>
    <rect x="570.02" y="603.17" width="29.77" height="29.77" transform="translate(-133.34 161.73) rotate(-14.15)" style="fill: #0080c7; stroke-width: 0px;"/>
    <polygon points="572.49 636.31 603.49 628.49 595.67 597.5 564.68 605.31 572.49 636.31" style="fill: #00afed; stroke-width: 0px;"/>
    <polygon points="624.64 584.48 611.71 587.74 622.23 629.48 624.64 628.87 624.64 584.48" style="fill: #008ed3; stroke-width: 0px;"/>
    <rect x="163.18" y="774.77" width="8.7" height="8.7" transform="translate(-185.58 64.69) rotate(-14.17)" style="fill: #6bcbf3; stroke-width: 0px;"/>
    <rect x="216.19" y="760.45" width="10.22" height="10.22" transform="translate(-180.9 77.6) rotate(-14.19)" style="fill: #5dc8f3; stroke-width: 0px;"/>
    <rect x="270.71" y="747.66" width="8.7" height="8.7" transform="translate(-175.68 90.19) rotate(-14.17)" style="fill: #64caf3; stroke-width: 0px;"/>
    <rect x="318.49" y="728.12" width="20.66" height="20.66" transform="translate(-170.53 102.78) rotate(-14.15)" style="fill: #00bbf0; stroke-width: 0px;"/>
    <rect x="372.15" y="714.46" width="20.87" height="20.87" transform="translate(-165.61 115.53) rotate(-14.15)" style="fill: #00baf0; stroke-width: 0px;"/>
    <rect x="430.81" y="705.79" width="11.09" height="11.09" transform="translate(-160.35 127.94) rotate(-14.12)" style="fill: #4ec6f2; stroke-width: 0px;"/>
    <polygon points="473.16 726.16 518.49 714.73 507.06 669.41 461.73 680.83 473.16 726.16" style="fill: #0074bc; stroke-width: 0px;"/>
    <polygon points="525.59 714.84 574.5 702.52 562.16 653.6 513.25 665.94 525.59 714.84" style="fill: #0051a3; stroke-width: 0px;"/>
    <polygon points="624.64 673.28 616.16 639.65 566.62 652.14 579.11 701.69 624.64 690.2 624.64 673.28" style="fill: #004d99; stroke-width: 0px;"/>
    <polygon points="306.21 802.19 301.62 783.99 266.84 792.77 269.21 802.19 306.21 802.19" style="fill: #00a0e2; stroke-width: 0px;"/>
    <polygon points="364.63 802.19 356.26 768.98 319.14 778.34 325.16 802.19 364.63 802.19" style="fill: #09d; stroke-width: 0px;"/>
    <polygon points="396.62 802.19 423.99 795.29 412.78 750.8 368.29 762.03 378.42 802.19 396.62 802.19" style="fill: #007bc3; stroke-width: 0px;"/>
    <rect x="428.27" y="743.47" width="43.27" height="43.27" transform="translate(-173.42 133.23) rotate(-14.15)" style="fill: #008ad0; stroke-width: 0px;"/>
    <rect x="482.36" y="730.23" width="42.62" height="42.62" transform="translate(-168.44 145.93) rotate(-14.15)" style="fill: #0088cf; stroke-width: 0px;"/>
    <polygon points="545.05 758.71 578.15 750.36 569.81 717.27 536.71 725.61 545.05 758.71" style="fill: #00aced; stroke-width: 0px;"/>
    <polygon points="624.64 710.61 623.1 704.5 591.27 712.53 599.29 744.37 624.64 737.97 624.64 710.61" style="fill: #00aeed; stroke-width: 0px;"/>
    <polygon points="482.58 802.19 479.86 791.4 437.1 802.19 482.58 802.19" style="fill: #007fc5; stroke-width: 0px;"/>
    <rect x="563.71" y="784.47" width="14.57" height="14.57" transform="translate(-176.1 163.45) rotate(-14.14)" style="fill: #20c0f1; stroke-width: 0px;"/>
    <polygon points="624.64 759.61 602.84 765.11 611.67 800.11 624.64 796.84 624.64 759.61" style="fill: #00a3e6; stroke-width: 0px;"/>
  </g>
</svg>