<?xml version="1.0" encoding="UTF-8"?>
<svg id="Capa_2" data-name="Capa 2" xmlns="http://www.w3.org/2000/svg" viewBox="0 0 613.41 791.46">
  <g id="Fondo">
    <rect x=".04" width="613.31" height="791.46" style="fill: #fff; stroke-width: 0px;"/>
  </g>
  <g id="Capa_2-2" data-name="Capa 2">
    <line x1="612.7" y1=".39" x2="602.33" y2=".39" style="fill: #41b8ea; stroke-width: 0px;"/>
    <polygon points=".04 36.77 .04 0 36.81 33.77 .04 70.54 .04 36.77" style="fill: #41b8ea; stroke-width: 0px;"/>
    <polyline points="613.31 0 40.41 31.09 6.06 0" style="fill: #41b8ea; stroke-width: 0px;"/>
    <polyline points="613.24 6.61 455.18 18.38 465.64 25.51 613.31 13.78 613.31 6.62" style="fill: #58595b; stroke-width: 0px;"/>
    <polyline points="613.28 18.69 485.93 30.47 495.39 37.6 613.35 25.87 613.35 18.7" style="fill: #43b9ea; stroke-width: 0px;"/>
    <polygon points=".5 71.95 .84 35.27 37.61 69.04 .5 105.72 .5 71.95" style="fill: none; stroke: #41b8ea; stroke-miterlimit: 10;"/>
    <g>
      <line x1=".69" y1="791.07" x2="11.06" y2="791.07" style="fill: #41b8ea; stroke-width: 0px;"/>
      <polygon points="613.35 754.69 613.35 791.46 576.58 757.69 613.35 720.92 613.35 754.69" style="fill: #41b8ea; stroke-width: 0px;"/>
      <polyline points=".08 791.46 572.98 760.37 607.33 791.46" style="fill: #41b8ea; stroke-width: 0px;"/>
      <polyline points=".15 784.85 158.21 773.08 147.75 765.95 .08 777.68 .08 784.84" style="fill: #58595b; stroke-width: 0px;"/>
      <polyline points=".11 772.66 127.46 761.88 118 754.76 .04 765.48 .04 772.65" style="fill: #43b9ea; stroke-width: 0px;"/>
      <polygon points="612.84 727.59 612.86 764.33 576.58 730.57 612.91 693.8 612.84 727.59" style="fill: none; stroke: #41b8ea; stroke-miterlimit: 10;"/>
      <path d="m17.14,763.95l-17.14,1.83v-16.81s.99,4.01.99,4.01c1.44,5.82,6.31,8.53,12.13,9.98l4.01,1Z" style="fill: #46b8ea; stroke-width: 0px;"/>
    </g>
    <path d="m596.97,27.24l16.23-1.73c.08,0,.15.05.15.13v15.56c0,.16-.23.19-.26.03h0c-1.41-5.7-7.24-11.53-12.94-12.94l-3.2-.79c-.15-.04-.13-.25.02-.26Z" style="fill: #46b8ea; stroke-width: 0px;"/>
    <line x1="80.81" y1="219.32" x2="80.81" y2="270.8" style="fill: none; stroke: #f1f1f2; stroke-linecap: round; stroke-miterlimit: 10;"/>
    <rect x="79.73" y="257.01" width="2.16" height="2.16" style="fill: #249ed9; stroke-width: 0px;"/>
    <rect x="79.73" y="221.61" width="2.16" height="2.16" style="fill: #249ed9; stroke-width: 0px;"/>
  </g>
</svg>